<svg width="1294" height="1388" viewBox="0 0 1294 1388" fill="none" xmlns="http://www.w3.org/2000/svg">
<path d="M740 91H1211V524L1091 578.5L929 599L740 524V91Z" fill="white"/>
<path fill-rule="evenodd" clip-rule="evenodd" d="M1215 0H986V242.562L986 227L986 186L986 147V112H996.5C1006.17 112 1014 119.835 1014 129.5V133C1014 140.732 1007.73 147 1000 147H1013.02C1015.41 147 1017.61 147.759 1019.41 149.049L1029.89 141.901C1037.7 136.575 1046.35 132.605 1055.48 130.159C1064.61 127.712 1074.09 126.824 1083.52 127.533L1087.15 127.806C1095.32 128.42 1103.4 129.985 1111.21 132.469L1116.43 134.129C1120 129.776 1125.43 127 1131.5 127H1132.5C1143.27 127 1152 135.73 1152 146.5C1152 152.386 1149.39 157.663 1145.27 161.238L1178.55 350H1200C1200 384.242 1172.24 412 1138 412H1133H1128C1093.76 412 1066 384.242 1066 350H1087.45L1120.5 162.601C1115.83 159.403 1112.62 154.228 1112.08 148.282C1105.42 146.425 1098.58 145.228 1091.68 144.709L1088.05 144.436C1078.62 143.728 1069.14 144.616 1060.01 147.062C1050.88 149.509 1042.23 153.479 1034.42 158.805L1024 165.913V186V193V242C1024 252.493 1015.49 261 1005 261H1004V476H1012C1026.36 476 1038 487.641 1038 502V526H1095V561H986L986 674L1026.5 651L1071 627L1132.5 590.5L1175.92 564.828C1185.29 559.287 1194.15 552.923 1202.39 545.81L1204.3 544.157C1218.99 531.481 1231.38 516.367 1240.94 499.479C1249.92 483.598 1256.27 466.366 1259.74 448.452L1261.11 441.325C1263.7 427.972 1265 414.403 1265 400.802V337V50C1265 22.3858 1242.61 0 1215 0ZM1097.51 350H1168.49L1135.99 165.688C1134.86 165.893 1133.69 166 1132.5 166H1131.5C1130.98 166 1130.47 165.98 1129.97 165.941L1097.51 350Z" fill="#C69368"/>
<path fill-rule="evenodd" clip-rule="evenodd" d="M757 34H986L986 112H975.5C965.835 112 958 119.835 958 129.5V133C958 140.732 964.268 147 972 147H958.975C956.593 147 954.387 147.759 952.588 149.049L942.108 141.901C934.299 136.575 925.647 132.605 916.517 130.159C907.387 127.712 897.909 126.824 888.484 127.533L884.849 127.806C876.676 128.42 868.603 129.985 860.793 132.469L855.574 134.129C851.997 129.776 846.573 127 840.5 127H839.5C828.73 127 820 135.73 820 146.5C820 152.386 822.608 157.663 826.731 161.238L793.448 350H772C772 384.242 799.758 412 834 412H839H844C878.242 412 906 384.242 906 350H884.548L851.504 162.601C856.173 159.403 859.381 154.228 859.92 148.282C866.583 146.425 873.416 145.228 880.32 144.709L883.954 144.436C893.38 143.728 902.858 144.616 911.988 147.062C921.118 149.509 929.77 153.479 937.579 158.805L948 165.913V186V193V242C948 252.493 956.507 261 967 261H968V476H960C945.641 476 934 487.641 934 502V526H877V561H986V708L945.5 685L901 661L839.5 624.5L796.083 598.828C786.713 593.287 777.855 586.923 769.614 579.81L767.698 578.157C753.009 565.481 740.616 550.367 731.064 533.479C722.081 517.598 715.732 500.366 712.265 482.452L710.886 475.325C708.301 461.972 707 448.403 707 434.802V371V84C707 56.3858 729.386 34 757 34ZM874.488 350H803.507L836.006 165.688C837.14 165.893 838.307 166 839.5 166H840.5C841.016 166 841.528 165.98 842.034 165.941L874.488 350Z" fill="#FF5A33"/>
<path d="M184.654 1142.96C202.353 1142.96 218.248 1147 232.339 1155.07C246.601 1162.98 257.77 1173.98 265.847 1188.07C273.923 1202.16 277.961 1218.05 277.961 1235.75C277.961 1253.45 273.923 1269.34 265.847 1283.44C257.77 1297.53 246.601 1308.61 232.339 1316.69C218.248 1324.59 202.353 1328.54 184.654 1328.54C168.502 1328.54 153.724 1325.19 140.321 1318.49C127.089 1311.79 116.178 1302.42 107.586 1290.39C99.166 1278.37 93.925 1264.71 91.863 1249.41H63.5101V1325.96H30.5176V1145.54H63.5101V1219.51H92.3785C94.7842 1204.56 100.197 1191.33 108.617 1179.82C117.209 1168.13 128.034 1159.11 141.094 1152.75C154.325 1146.22 168.845 1142.96 184.654 1142.96ZM184.654 1299.16C195.824 1299.16 205.962 1296.5 215.069 1291.17C224.177 1285.84 231.308 1278.37 236.463 1268.74C241.618 1259.12 244.195 1248.12 244.195 1235.75C244.195 1223.38 241.618 1212.38 236.463 1202.76C231.308 1193.14 224.177 1185.66 215.069 1180.33C205.962 1175.01 195.824 1172.34 184.654 1172.34C173.485 1172.34 163.347 1175.01 154.239 1180.33C145.304 1185.66 138.173 1193.14 132.846 1202.76C127.691 1212.38 125.113 1223.38 125.113 1235.75C125.113 1248.12 127.691 1259.12 132.846 1268.74C138.173 1278.37 145.304 1285.84 154.239 1291.17C163.347 1296.5 173.485 1299.16 184.654 1299.16ZM389.683 1145.54C405.32 1145.54 418.895 1148.11 430.408 1153.27C442.093 1158.42 451.029 1165.81 457.215 1175.44C463.401 1185.06 466.494 1196.49 466.494 1209.72C466.494 1222.78 463.401 1234.2 457.215 1244C451.029 1253.62 442.093 1261.01 430.408 1266.17C418.895 1271.32 405.32 1273.9 389.683 1273.9H348.958V1325.96H315.45V1145.54H389.683ZM388.137 1245.55C402.743 1245.55 413.826 1242.45 421.387 1236.27C428.948 1230.08 432.728 1221.23 432.728 1209.72C432.728 1198.2 428.948 1189.36 421.387 1183.17C413.826 1176.98 402.743 1173.89 388.137 1173.89H348.958V1245.55H388.137ZM498.451 1145.54H531.444V1273.64L628.359 1145.54H659.547V1325.96H626.555V1198.12L529.639 1325.96H498.451V1145.54ZM793.132 1328.54C774.917 1328.54 758.421 1324.59 743.643 1316.69C729.037 1308.61 717.524 1297.53 709.104 1283.44C700.856 1269.34 696.732 1253.45 696.732 1235.75C696.732 1218.05 700.942 1202.16 709.362 1188.07C717.782 1173.98 729.295 1162.98 743.901 1155.07C758.679 1147 775.175 1142.96 793.39 1142.96C808.168 1142.96 821.657 1145.54 833.857 1150.69C846.057 1155.85 856.368 1163.32 864.788 1173.12L843.136 1193.48C830.077 1179.39 814.01 1172.34 794.936 1172.34C782.564 1172.34 771.481 1175.09 761.686 1180.59C751.891 1185.92 744.245 1193.39 738.746 1203.02C733.247 1212.64 730.498 1223.55 730.498 1235.75C730.498 1247.95 733.247 1258.86 738.746 1268.49C744.245 1278.11 751.891 1285.67 761.686 1291.17C771.481 1296.5 782.564 1299.16 794.936 1299.16C814.01 1299.16 830.077 1292.03 843.136 1277.76L864.788 1298.39C856.368 1308.18 845.972 1315.65 833.599 1320.81C821.399 1325.96 807.91 1328.54 793.132 1328.54ZM1024.82 1173.89H965.026V1325.96H931.775V1173.89H872.234V1145.54H1024.82V1173.89ZM1136.98 1206.62C1158.63 1206.62 1175.21 1211.52 1186.72 1221.32C1198.41 1230.94 1204.25 1245.29 1204.25 1264.36C1204.25 1284.29 1197.89 1299.59 1185.18 1310.24C1172.46 1320.72 1154.59 1325.96 1131.56 1325.96H1053.98V1145.54H1086.97V1206.62H1136.98ZM1130.02 1300.19C1143.08 1300.19 1153.13 1297.18 1160.18 1291.17C1167.22 1285.15 1170.74 1276.39 1170.74 1264.88C1170.74 1243.05 1157.17 1232.14 1130.02 1232.14H1086.97V1300.19H1130.02ZM1230.28 1145.54H1263.28V1325.96H1230.28V1145.54Z" fill="#802304"/>
<path d="M794.894 1077L794.636 981.373L748.241 1059.21H725.558L679.163 983.435V1077H632.252V896.572H674.265L737.673 1000.7L799.534 896.572H841.548L842.063 1077H794.894ZM969.107 1080.61C950.034 1080.61 932.85 1076.57 917.557 1068.49C902.435 1060.42 890.492 1049.25 881.729 1034.99C873.137 1020.72 868.841 1004.66 868.841 986.786C868.841 968.915 873.137 952.849 881.729 938.586C890.492 924.324 902.435 913.155 917.557 905.078C932.85 897.002 950.034 892.964 969.107 892.964C988.181 892.964 1005.28 897.002 1020.4 905.078C1035.69 913.155 1047.64 924.324 1056.23 938.586C1064.99 952.849 1069.37 968.915 1069.37 986.786C1069.37 1004.66 1064.99 1020.72 1056.23 1034.99C1047.64 1049.25 1035.69 1060.42 1020.4 1068.49C1005.28 1076.57 988.181 1080.61 969.107 1080.61ZM969.107 1038.34C978.215 1038.34 986.463 1036.19 993.852 1031.89C1001.24 1027.6 1007.08 1021.58 1011.38 1013.85C1015.67 1005.95 1017.82 996.925 1017.82 986.786C1017.82 976.648 1015.67 967.712 1011.38 959.98C1007.08 952.075 1001.24 945.975 993.852 941.679C986.463 937.383 978.215 935.235 969.107 935.235C960 935.235 951.752 937.383 944.363 941.679C936.974 945.975 931.132 952.075 926.836 959.98C922.54 967.712 920.392 976.648 920.392 986.786C920.392 996.925 922.54 1005.95 926.836 1013.85C931.132 1021.58 936.974 1027.6 944.363 1031.89C951.752 1036.19 960 1038.34 969.107 1038.34ZM1096.66 896.572H1146.92V1002.51L1221.41 896.572H1269.36V1077H1219.09V971.321L1144.86 1077H1096.66V896.572Z" fill="#802304"/>
</svg>
