<svg width="558" height="708" viewBox="0 0 558 708" fill="none" xmlns="http://www.w3.org/2000/svg">
<path d="M33 91H504V524L384 578.5L222 599L33 524V91Z" fill="white"/>
<path fill-rule="evenodd" clip-rule="evenodd" d="M508 0H279V242.562L279 227L279 186L279 147V112H289.5C299.165 112 307 119.835 307 129.5V133C307 140.732 300.732 147 293 147H306.024C308.407 147 310.613 147.759 312.412 149.049L322.892 141.901C330.701 136.575 339.353 132.605 348.483 130.159C357.613 127.712 367.091 126.824 376.516 127.533L380.151 127.806C388.324 128.42 396.397 129.985 404.207 132.469L409.426 134.129C413.003 129.776 418.427 127 424.5 127H425.5C436.27 127 445 135.73 445 146.5C445 152.386 442.392 157.663 438.269 161.238L471.552 350H493C493 384.242 465.242 412 431 412H426H421C386.758 412 359 384.242 359 350H380.452L413.496 162.601C408.827 159.403 405.619 154.228 405.08 148.282C398.417 146.425 391.584 145.228 384.68 144.709L381.046 144.436C371.62 143.728 362.142 144.616 353.012 147.062C343.882 149.509 335.23 153.479 327.421 158.805L317 165.913V186V193V242C317 252.493 308.493 261 298 261H297V476H305C319.359 476 331 487.641 331 502V526H388V561H279L279 674L319.5 651L364 627L425.5 590.5L468.917 564.828C478.287 559.287 487.145 552.923 495.386 545.81L497.302 544.157C511.991 531.481 524.384 516.367 533.936 499.479C542.919 483.598 549.268 466.366 552.735 448.452L554.114 441.325C556.699 427.972 558 414.403 558 400.802V337V50C558 22.3858 535.614 0 508 0ZM390.512 350H461.493L428.994 165.688C427.86 165.893 426.693 166 425.5 166H424.5C423.984 166 423.472 165.98 422.966 165.941L390.512 350Z" fill="#C69368"/>
<path fill-rule="evenodd" clip-rule="evenodd" d="M50 34H279L279 112H268.5C258.835 112 251 119.835 251 129.5V133C251 140.732 257.268 147 265 147H251.975C249.593 147 247.387 147.759 245.588 149.049L235.108 141.901C227.299 136.575 218.647 132.605 209.517 130.159C200.387 127.712 190.909 126.824 181.484 127.533L177.849 127.806C169.676 128.42 161.603 129.985 153.793 132.469L148.574 134.129C144.997 129.776 139.573 127 133.5 127H132.5C121.73 127 113 135.73 113 146.5C113 152.386 115.608 157.663 119.731 161.238L86.4475 350H65C65 384.242 92.7583 412 127 412H132H137C171.242 412 199 384.242 199 350H177.548L144.504 162.601C149.173 159.403 152.381 154.228 152.92 148.282C159.583 146.425 166.416 145.228 173.32 144.709L176.954 144.436C186.38 143.728 195.858 144.616 204.988 147.062C214.118 149.509 222.77 153.479 230.579 158.805L241 165.913V186V193V242C241 252.493 249.507 261 260 261H261V476H253C238.641 476 227 487.641 227 502V526H170V561H279V708L238.5 685L194 661L132.5 624.5L89.0834 598.828C79.7131 593.287 70.8548 586.923 62.6136 579.81L60.6976 578.157C46.0092 565.481 33.6164 550.367 24.0639 533.479C15.0807 517.598 8.73206 500.366 5.26499 482.452L3.88554 475.325C1.30111 461.972 0 448.403 0 434.802V371V84C0 56.3858 22.3858 34 50 34ZM167.488 350H96.5071L129.006 165.688C130.14 165.893 131.307 166 132.5 166H133.5C134.016 166 134.528 165.98 135.034 165.941L167.488 350Z" fill="#FF5A33"/>
</svg>
